<?xml version="1.0" encoding="UTF-8"?><svg id="Artwork" xmlns="http://www.w3.org/2000/svg" viewBox="0 0 163.56 127.35"><defs><style>.cls-1{fill:#1a1a18;}</style></defs><path id="PUMA_Logo_Cat_with-Registration" class="cls-1" d="m19.33,3.9c1.11-.37,2.66-3.64,4.17-3.45.65.08,3.2,5.23,3.2,5.23,20.75,1.04,46.3,26.14,49.61,28.68,1.59,1.23,8.29,8.17,20.56,13.55,5.04,2.21,10.1,3.14,14.79,2.81,6.28-.45,13.28-5.95,17.58-13.43,5.4-9.38,7.71-25.71,23.3-34.97,2.17-1.29,7.13-4.19,9.98-.54,2.3,2.94.41,7.84-2,10.18-1.5,1.46-4.26,2.95-9.48,5.43-1.76.83-4.65,3.01-5.78,3.86-5.59,4.29-9.66,13.96-14.17,24.57,0,0-1.91,5.21-10.4,10.82-1.42.93-.14,1.71,1.41,3.72,2.01,2.61,6.01,13.4,5.49,29.78-.09,2.9,1.08,4.16,2.41,6.53,2.3,4.11,6.83,3.22,6.72,8.58-.15,7.25,5.18,8.79,3.48,12.12-1.25,2.44-.83,4.79-.82,7.15,0,1.21.65,2.97-1.84,2.83-10.15-.6-9.47-14.25-9.29-18.93.17-.62-.3-1.73-.38-1.78-.49-.36-6.84-5.28-7.26-5.71-7.69-7.82-12.76-14.84-15.59-22.07-1.88-4.8-3.81-9.57-7.1-12.6-3.68-3.39-8.24-5.28-12.21-5.3-28.28-.15-34.08-12.56-41.78-18.75-.22-.17-.93-.55-1.35-.58-.42.04-.77.55-1.03.78-2.97,3.1-5.97,4.13-9.99,4.13-9.55,0-19.84-8.39-21.63-6.51-1.39,1.45-.2,4.44-2.72,4.95-3.69.74-7.48-2.89-7.17-5.96.55-5.51,6.18-7.12,11.11-7.66,4.08-.46,7.42.66,8.19.77,2.29.3,2.68-2.45,2.3-4.25-.41-1.92-2.23-2.32-4.1-2.87-2.28-.67-4.82,1.21-6.54.61-2.01-.7-2.14-1.73-3.83-3.2-2.09-1.84-4.54-2.32-4.54-4.94,0-2.38,2.91-2.58,3.76-4.8.42-1.08.29-2.24.65-2.9,1-1.8,2.84-1.71,4.33-3.18,2.03-2,3.03-5.87,4.09-6.04,1.06-.16,2.82,3.72,3.87,3.37Zm126.16,115.76c-1.68,0-3.07,1.42-3.07,3.13s1.4,3.12,3.12,3.12,3.09-1.41,3.09-3.12-1.38-3.13-3.14-3.13Zm.05,5.8c-1.44,0-2.61-1.2-2.61-2.67s1.17-2.68,2.57-2.68h.04c1.44,0,2.59,1.19,2.59,2.68s-1.16,2.67-2.59,2.67Zm.36-2.4c.42-.12.72-.54.72-1,0-.7-.51-1.07-1.47-1.07h-.73v3.61h.69v-1.42l1.06,1.42h.84l-1.17-1.51.05-.02Zm-.68-.48h-.11v-.98h.12c.48,0,.73.16.73.46,0,.34-.25.51-.74.51Z"/></svg>