<?xml version="1.0" encoding="UTF-8"?><svg id="Artwork" xmlns="http://www.w3.org/2000/svg" viewBox="0 0 226.77 112.73"><defs><style>.cls-1{fill:#1a1a18;}</style></defs><path id="PUMA_Logo_Standard-No1_with-Registration" class="cls-1" d="m122.21.38c.73-.12,2,2.62,2.72,2.37.8-.24,1.9-2.56,2.97-2.43.45.06,2.24,3.71,2.24,3.71,14.68.72,32.68,18.44,35.03,20.23,1.14.87,5.83,5.78,14.52,9.58,3.55,1.56,7.13,2.2,10.43,1.97,4.47-.3,9.4-4.19,12.41-9.48,3.83-6.61,5.44-18.13,16.44-24.67,1.54-.91,5.05-2.98,7.06-.39,1.64,2.07.3,5.55-1.41,7.19-1.04,1.02-3,2.07-6.68,3.83-1.26.58-3.3,2.14-4.1,2.72-3.94,3.03-6.81,9.86-9.99,17.34,0,0-1.36,3.69-7.34,7.65-1.04.66-.1,1.19,1,2.62,1.38,1.85,4.22,9.46,3.87,21.03-.09,2.01.76,2.93,1.68,4.6,1.63,2.91,4.83,2.26,4.73,6.07-.08,5.09,3.67,6.21,2.45,8.53-.85,1.72-.56,3.4-.54,5.06,0,.87.44,2.09-1.32,1.99-7.16-.4-6.67-10.02-6.57-13.38.15-.43-.2-1.19-.26-1.24-.33-.26-4.81-3.72-5.1-4.04-5.44-5.51-9.02-10.45-11.03-15.57-1.32-3.4-2.68-6.76-4.99-8.87-2.63-2.42-5.84-3.74-8.64-3.77-19.96-.1-24.06-8.86-29.5-13.22-.16-.12-.66-.39-.93-.42-.3.04-.56.39-.75.53-2.1,2.21-4.21,2.94-7.06,2.94-6.73,0-13.98-5.9-15.26-4.59-.97,1.02-.13,3.13-1.92,3.48-2.6.51-5.28-2.04-5.07-4.21.39-3.89,4.37-5.02,7.86-5.39,2.89-.31,5.23.46,5.76.53,1.64.22,1.9-1.73,1.64-2.98-.29-1.38-1.57-1.66-2.9-2.06-1.6-.48-3.4.86-4.64.43-1.39-.48-1.47-1.21-2.67-2.25-1.5-1.29-3.22-1.64-3.22-3.49.02-1.67,2.06-1.83,2.67-3.39.28-.75.2-1.57.45-2.04.73-1.28,2.01-1.22,3.07-2.25,1.43-1.41,2.15-4.16,2.88-4.26M57.83,106.14c-1.4-.05-2.55-1.14-2.55-2.53v-45.63s-15.02,0-15.02,0v50.29c0,2.46,1.99,4.47,4.41,4.47h26.31c2.46,0,4.46-2,4.46-4.47v-50.29h-15.05v45.63c0,1.39-1.19,2.48-2.56,2.53m50.33-48.16h-22.73c-2.69,0-4.88,2.18-4.88,4.91v49.84h15.02v-45.74c.03-1.38,1.18-2.51,2.56-2.51s2.53,1.08,2.56,2.49v45.75h14.98v-45.75c.02-1.41,1.15-2.49,2.55-2.49s2.54,1.13,2.56,2.51v45.74h15.03v-49.84c0-2.74-2.16-4.91-4.87-4.91h-22.79ZM30.23,98.98c2.71,0,4.91-2.2,4.91-4.92v-31.16c0-2.74-2.1-4.91-4.84-4.91H0v54.75h15.01v-13.76h15.22m-10.09-9.37c0,1.54-1.23,2.6-2.56,2.6h-2.57v-27.7h2.57c1.31,0,2.56,1.06,2.56,2.57v22.53Zm140.92,23.12h15.04v-49.84c0-2.74-2.19-4.91-4.91-4.91h-25.37c-2.71,0-4.89,2.18-4.89,4.91v49.84h15.03v-13.74h5.1v13.74m-5.13-20.52v-25.18c.06-1.4,1.19-2.51,2.57-2.51s2.52,1.09,2.56,2.48v25.21h-5.13Zm31.39,16.64c0-2.16-1.71-3.86-3.92-3.86s-3.82,1.75-3.82,3.86,1.73,3.88,3.89,3.88,3.85-1.74,3.85-3.88m-3.85-3.29c1.79,0,3.23,1.48,3.23,3.3s-1.44,3.31-3.23,3.31-3.26-1.48-3.26-3.31,1.47-3.3,3.21-3.3h.05Zm1.81,5.53l-1.43-1.87.06-.03c.53-.15.9-.66.9-1.25,0-.86-.64-1.3-1.84-1.3h-.91v4.44h.85v-1.75l1.33,1.75h1.04m-2.36-2.48v-1.21h.17c.59,0,.91.2.91.58,0,.41-.32.64-.92.64h-.16Z"/></svg>