<?xml version="1.0" encoding="UTF-8"?><svg id="Artwork" xmlns="http://www.w3.org/2000/svg" viewBox="0 0 424.82 92.6"><defs><style>.cls-1{fill:#1a1a18;}</style></defs><path id="Standard_No2_Logo" class="cls-1" d="m51.14,69.34h-25.73v23.25H0V0h51.29C55.91,0,59.45,3.69,59.45,8.32v52.7c0,4.61-3.72,8.33-8.32,8.33ZM34.07,15.38c0-2.54-2.11-4.35-4.33-4.35h-4.34v46.85h4.34c2.25,0,4.33-1.79,4.33-4.38V15.38Zm238.33,77.21v-23.24h-8.63v23.24h-25.43V8.32C238.34,3.69,242.03,0,246.61,0h42.91c4.59,0,8.29,3.69,8.29,8.32v84.28h-25.42Zm0-34.71V15.26c-.07-2.36-2.02-4.19-4.35-4.19s-4.24,1.88-4.33,4.25v42.58h8.68ZM317.65.39c-.75.11-1.49,2.92-2.97,4.38-1.08,1.05-2.39.98-3.12,2.3-.27.49-.18,1.33-.47,2.09-.63,1.6-2.71,1.77-2.74,3.49,0,1.89,1.77,2.24,3.29,3.57,1.23,1.06,1.33,1.81,2.75,2.3,1.26.44,3.1-.93,4.74-.44,1.37.41,2.67.7,2.97,2.1.26,1.29,0,3.29-1.68,3.06-.56-.08-2.95-.87-5.91-.54-3.58.38-7.67,1.54-8.06,5.52-.21,2.22,2.54,4.84,5.21,4.32,1.83-.37.96-2.53,1.95-3.58,1.33-1.34,8.75,4.7,15.64,4.7,2.93,0,5.08-.74,7.24-3.01.19-.15.47-.51.77-.55.28.04.8.33.96.44,5.59,4.47,9.79,13.44,30.24,13.55,2.86.03,6.15,1.39,8.85,3.86,2.37,2.16,3.77,5.61,5.12,9.1,2.07,5.24,5.74,10.31,11.3,15.96.3.33,4.88,3.88,5.23,4.14.07.06.41.82.27,1.28-.1,3.42-.62,13.29,6.73,13.71,1.8.1,1.35-1.16,1.35-2.05-.02-1.7-.31-3.41.56-5.18,1.26-2.38-2.59-3.53-2.5-8.74.08-3.91-3.19-3.25-4.86-6.22-.94-1.72-1.81-2.66-1.72-4.72.35-11.86-2.56-19.66-3.97-21.56-1.13-1.46-2.1-1.99-1.03-2.68,6.13-4.06,7.52-7.84,7.52-7.84,3.27-7.67,6.21-14.67,10.24-17.78.82-.61,2.91-2.2,4.21-2.79,3.76-1.8,5.78-2.88,6.85-3.93,1.75-1.67,3.13-5.24,1.44-7.36-2.06-2.65-5.65-.53-7.23.4-11.27,6.71-12.93,18.51-16.85,25.29-3.09,5.42-8.16,9.41-12.72,9.73-3.39.23-7.05-.43-10.7-2.03-8.9-3.9-13.72-8.93-14.87-9.81-2.4-1.84-20.87-19.99-35.9-20.73,0,0-1.84-3.74-2.3-3.81-1.1-.12-2.23,2.26-3.04,2.49-.74.26-2.04-2.54-2.79-2.42ZM97.8,81.47c-2.35-.1-4.31-1.94-4.31-4.3L93.52,0h-25.41v85.05c0,4.15,3.35,7.54,7.45,7.54h44.49c4.18,0,7.55-3.39,7.55-7.54V0h-25.47v77.17c0,2.36-2,4.2-4.32,4.3ZM182.92,0h-38.44c-4.55,0-8.26,3.69-8.26,8.32v84.28h25.41V15.26c.06-2.34,2-4.24,4.34-4.24s4.3,1.82,4.33,4.21v77.37h25.34V15.23c.04-2.39,1.94-4.21,4.31-4.21s4.28,1.9,4.34,4.24v77.34h25.41V8.32C229.7,3.69,226.03,0,221.45,0h-38.54Zm127.22,79.51c-3.54,0-6.47,2.96-6.47,6.52s2.93,6.57,6.58,6.57,6.51-2.95,6.51-6.57-2.9-6.52-6.62-6.52Zm.12,12.16c-3.03,0-5.52-2.5-5.52-5.6s2.49-5.59,5.43-5.59h.09c3.03,0,5.47,2.51,5.47,5.59s-2.44,5.6-5.47,5.6Zm.74-5.05c.89-.25,1.53-1.12,1.53-2.11,0-1.45-1.09-2.2-3.11-2.2h-1.54v7.52h1.45v-2.97l2.25,2.97h1.75l-2.42-3.16.1-.05Zm-1.41-.99h-.27v-2.05h.29c1,0,1.53.34,1.53.98,0,.69-.54,1.07-1.56,1.07Z"/></svg>